<?xml version="1.0" encoding="UTF-8"?>
<!DOCTYPE svg PUBLIC "-//W3C//DTD SVG 1.1//EN" "http://www.w3.org/Graphics/SVG/1.1/DTD/svg11.dtd">
<svg version="1.1" xmlns="http://www.w3.org/2000/svg" xmlns:xlink="http://www.w3.org/1999/xlink" x="0" y="0" width="347.739" height="93.322" viewBox="0, 0, 347.739, 93.322">
  <g id="Layer_2_Copy" transform="translate(-353.167, -39.678)">
    <g>
      <path d="M358.064,45.206 L436.064,45.206 L433.089,41.381 L433.089,128.703 L433.269,128.472 L355.269,128.472 L358.244,132.297 L358.244,44.975 L358.244,44.975 C358.244,44.455 357.538,43.23 356.667,42.237 C355.796,41.245 355.089,40.861 355.089,41.381 C355.089,41.381 355.089,41.381 355.089,41.381 L355.089,128.703 L355.089,128.703 C355.089,129.053 355.415,129.745 355.935,130.499 C356.706,131.62 357.66,132.528 358.064,132.528 L358.064,132.528 L436.064,132.528 L436.064,132.528 C436.182,132.528 436.244,132.449 436.244,132.297 L436.244,132.297 L436.244,44.975 L436.244,44.975 C436.244,44.625 435.918,43.933 435.399,43.178 C434.627,42.058 433.674,41.15 433.269,41.149 L433.269,41.149 L355.269,41.149 C354.865,41.15 355.163,42.058 355.935,43.178 C356.707,44.298 357.661,45.206 358.064,45.206 L358.064,45.206" fill="#000000"/>
      <path d="M410.164,53.852 C414.133,54.598 418.503,54.184 422.497,53.852" fill-opacity="0" stroke="#000000" stroke-width="3" stroke-linecap="round" stroke-linejoin="round"/>
      <path d="M411.831,57.852 C415.825,58.017 421.877,57.721 426.164,57.185" fill-opacity="0" stroke="#000000" stroke-width="3" stroke-linecap="round" stroke-linejoin="round"/>
      <path d="M368.164,70.185 C384.983,69.065 401.938,68.852 418.831,68.852" fill-opacity="0" stroke="#000000" stroke-width="3" stroke-linecap="round" stroke-linejoin="round"/>
      <path d="M368.497,75.518 C384.134,75.732 401.34,73.234 417.497,74.185" fill-opacity="0" stroke="#000000" stroke-width="3" stroke-linecap="round" stroke-linejoin="round"/>
      <path d="M369.497,79.518 C386.09,77.956 403.589,80.99 419.831,79.185" fill-opacity="0" stroke="#000000" stroke-width="3" stroke-linecap="round" stroke-linejoin="round"/>
      <path d="M368.497,85.185 C383.992,84.555 399.865,84.852 415.497,84.852" fill-opacity="0" stroke="#000000" stroke-width="3" stroke-linecap="round" stroke-linejoin="round"/>
      <path d="M368.831,90.185 C377.157,89.135 386.026,89.287 394.497,89.852" fill-opacity="0" stroke="#000000" stroke-width="3" stroke-linecap="round" stroke-linejoin="round"/>
      <path d="M370.164,110.852 C376.294,110.75 382.372,111.185 388.497,111.185" fill-opacity="0" stroke="#000000" stroke-width="3" stroke-linecap="round" stroke-linejoin="round"/>
    </g>
    <g>
      <path d="M452.431,84.747 L496.355,61.216 L496.012,61.158 L541.894,84.689 L541.894,84.689 C542.495,84.997 542.47,84.374 541.839,83.297 C541.208,82.22 540.21,81.097 539.609,80.789 L493.727,57.258 L493.727,57.258 C493.574,57.18 493.457,57.16 493.383,57.199 L493.383,57.199 L449.459,80.731 C449.459,80.731 449.459,80.731 449.459,80.731 C449.167,80.888 449.595,81.914 450.416,83.023 C451.237,84.132 452.139,84.904 452.431,84.747 L452.431,84.747" fill="#000000"/>
      <path d="M452.343,85.176 L542.149,85.176 L539.174,81.351 L539.174,128.703 L539.354,128.472 L449.548,128.472 L452.522,132.297 L452.522,84.944 L452.522,84.944 C452.522,84.425 451.816,83.199 450.945,82.207 C450.074,81.214 449.368,80.831 449.367,81.35 C449.367,81.35 449.367,81.35 449.367,81.35 L449.367,128.703 L449.367,128.703 C449.368,129.053 449.693,129.745 450.213,130.499 C450.985,131.62 451.938,132.528 452.342,132.528 L452.342,132.528 L542.149,132.528 L542.149,132.528 C542.267,132.528 542.329,132.449 542.329,132.297 L542.329,132.297 L542.329,84.944 L542.329,84.944 C542.329,84.594 542.003,83.902 541.484,83.148 C540.712,82.028 539.758,81.119 539.354,81.119 L539.354,81.119 L449.547,81.119 C449.143,81.119 449.442,82.028 450.214,83.148 C450.986,84.268 451.939,85.176 452.343,85.176 L452.343,85.176" fill="#000000"/>
      <g>
        <path d="M456.848,86.072 L456.848,61.844 L534.848,61.844 L534.848,86.497" fill="#FFFFFF"/>
        <path d="M458.426,87.869 L458.426,63.641 L458.246,63.873 L536.245,63.873 L533.271,60.047 L533.271,84.7 L533.271,84.7 C533.27,85.219 533.977,86.444 534.848,87.437 C535.719,88.43 536.425,88.813 536.426,88.294 C536.426,88.294 536.426,88.294 536.426,88.294 L536.426,63.641 L536.426,63.641 C536.425,63.291 536.1,62.599 535.58,61.845 C534.808,60.725 533.855,59.816 533.451,59.816 L533.451,59.816 L455.45,59.816 L455.45,59.816 C455.332,59.816 455.271,59.895 455.271,60.047 L455.271,60.047 L455.271,84.276 C455.271,84.276 455.271,84.276 455.271,84.276 C455.271,84.795 455.977,86.021 456.848,87.013 C457.72,88.006 458.426,88.389 458.426,87.869 L458.426,87.869" fill="#000000"/>
      </g>
      <path d="M452.075,85.091 L541.881,132.443 L541.881,132.443 C542.489,132.764 542.477,132.154 541.853,131.081 C541.229,130.008 540.231,128.878 539.622,128.557 L449.815,81.204 C449.207,80.883 449.22,81.494 449.844,82.567 C450.468,83.64 451.467,84.77 452.075,85.091 L452.075,85.091" fill="#000000"/>
      <path d="M539.266,81.139 L449.46,128.491 L449.46,128.491 C449.166,128.646 449.593,129.67 450.413,130.78 C451.233,131.889 452.136,132.663 452.43,132.509 L542.237,85.156 C542.53,85.001 542.103,83.976 541.283,82.867 C540.463,81.758 539.56,80.984 539.266,81.139 L539.266,81.139" fill="#000000"/>
      <path d="M534.848,103.448" fill="#000000"/>
      <path d="M510.346,72.518 C514.315,73.265 518.684,72.851 522.679,72.518" fill-opacity="0" stroke="#000000" stroke-width="3" stroke-linecap="round" stroke-linejoin="round"/>
      <path d="M512.012,76.518 C516.006,76.683 522.059,76.387 526.346,75.852" fill-opacity="0" stroke="#000000" stroke-width="3" stroke-linecap="round" stroke-linejoin="round"/>
      <path d="M468.346,88.852 C485.164,87.731 502.12,87.518 519.012,87.518" fill-opacity="0" stroke="#000000" stroke-width="3" stroke-linecap="round" stroke-linejoin="round"/>
      <path d="M517.679,92.852 C502.775,91.998 487.915,94.079 473.021,94.17" fill-opacity="0" stroke="#000000" stroke-width="3" stroke-linecap="round" stroke-linejoin="round"/>
      <path d="M509.146,98.329 C494.028,98.351 515.164,98.398 490.364,97.868 C482.557,97.75 486.139,97.764 479.619,97.788" fill-opacity="0" stroke="#000000" stroke-width="3" stroke-linecap="round" stroke-linejoin="round"/>
      <path d="M539.266,81.139 L449.46,128.491 L449.46,128.491 C449.166,128.646 449.593,129.67 450.413,130.78 C451.233,131.889 452.136,132.663 452.43,132.509 L542.237,85.156 C542.53,85.001 542.103,83.976 541.283,82.867 C540.463,81.758 539.56,80.984 539.266,81.139 L539.266,81.139" fill="#000000"/>
    </g>
    <path d="M681.121,82.124 L699.803,82.124 L696.829,78.298 L696.829,112.673 L697.008,112.441 L678.326,112.441 L681.301,116.267 L681.301,81.892 L681.301,81.892 C681.301,81.373 680.595,80.147 679.724,79.155 C678.852,78.162 678.146,77.779 678.146,78.298 C678.146,78.298 678.146,78.298 678.146,78.298 L678.146,112.673 L678.146,112.673 C678.146,113.023 678.472,113.715 678.992,114.469 C679.763,115.589 680.717,116.498 681.121,116.498 L681.121,116.498 L699.804,116.498 L699.804,116.498 C699.922,116.498 699.983,116.419 699.984,116.267 L699.984,116.267 L699.984,81.892 L699.984,81.892 C699.983,81.542 699.658,80.85 699.138,80.096 C698.366,78.976 697.413,78.067 697.009,78.067 L697.009,78.067 L678.326,78.067 C677.922,78.067 678.22,78.976 678.992,80.096 C679.764,81.216 680.717,82.124 681.121,82.124 L681.121,82.124" fill="#000000"/>
    <path d="M582.632,67.834 L675.338,67.834 L672.363,64.009 L672.363,112.673 L672.543,112.441 L579.837,112.441 L582.812,116.267 L582.812,67.603 L582.812,67.603 C582.812,67.084 582.106,65.858 581.235,64.866 C580.364,63.873 579.657,63.49 579.657,64.009 C579.657,64.009 579.657,64.009 579.657,64.009 L579.657,112.673 L579.657,112.673 C579.657,113.023 579.983,113.715 580.503,114.469 C581.274,115.589 582.228,116.498 582.632,116.498 L582.632,116.498 L675.339,116.498 L675.339,116.498 C675.457,116.498 675.518,116.419 675.518,116.267 L675.518,116.267 L675.518,67.603 L675.518,67.603 C675.518,67.253 675.193,66.561 674.673,65.807 C673.901,64.686 672.948,63.778 672.544,63.778 L672.544,63.778 L579.837,63.778 C579.433,63.778 579.731,64.686 580.503,65.807 C581.275,66.927 582.228,67.835 582.632,67.834 L582.632,67.834" fill="#000000"/>
    <path d="M611.583,118.322 L611.591,118.484 L611.59,118.44 L611.577,118.967 L611.474,119.966 L611.275,120.931 L610.983,121.866 L610.602,122.764 L610.137,123.618 L609.593,124.422 L608.976,125.169 L608.29,125.854 L607.541,126.471 L606.734,127.015 L605.875,127.481 L604.968,127.864 L604.021,128.158 L603.037,128.358 L602.024,128.46 L601.514,128.472 L601.527,128.472 L601,128.458 L599.989,128.355 L599.026,128.156 L598.113,127.87 L597.262,127.506 L596.488,127.081 L595.817,126.618 L595.291,126.168 L594.972,125.818 L594.895,125.667 L594.935,125.641 L594.881,125.455 L594.708,124.979 L594.507,124.28 L594.344,123.438 L594.255,122.506 L594.245,122.032 L594.245,122.073 L594.253,121.911 L594.074,122.116 L614.557,122.116 L614.557,122.116 C614.961,122.117 614.663,121.209 613.891,120.089 C613.12,118.968 612.166,118.06 611.762,118.06 L591.278,118.06 L591.278,118.06 C591.167,118.06 591.106,118.13 591.099,118.265 L591.099,118.265 L591.091,118.427 L591.091,118.427 C591.09,118.44 591.09,118.454 591.09,118.468 L591.09,118.468 L591.107,119.049 L591.228,120.184 L591.474,121.344 L591.871,122.57 L592.476,123.933 L593.368,125.489 L594.513,127.099 L595.689,128.466 L596.76,129.507 L597.753,130.309 L598.717,130.952 L599.686,131.472 L600.673,131.886 L601.686,132.198 L602.724,132.409 L603.781,132.515 L604.309,132.528 L604.309,132.528 C604.313,132.528 604.317,132.528 604.322,132.528 L604.322,132.528 L604.867,132.514 L605.92,132.406 L606.938,132.197 L607.916,131.892 L608.848,131.497 L609.731,131.017 L610.56,130.456 L611.329,129.821 L612.034,129.115 L612.669,128.344 L613.231,127.512 L613.712,126.623 L614.109,125.682 L614.415,124.693 L614.625,123.656 L614.732,122.588 L614.745,122.06 L614.745,122.06 C614.745,122.046 614.745,122.031 614.744,122.016 L614.744,122.016 L614.736,121.854 C614.708,121.303 613.979,120.065 613.109,119.09 C612.238,118.115 611.555,117.771 611.583,118.322 L611.583,118.322" fill="#000000"/>
    <path d="M683.087,118.322 L683.095,118.484 L683.094,118.44 L683.081,118.967 L682.978,119.966 L682.779,120.931 L682.487,121.866 L682.106,122.764 L681.641,123.618 L681.097,124.422 L680.48,125.169 L679.794,125.854 L679.045,126.471 L678.238,127.015 L677.379,127.481 L676.472,127.864 L675.524,128.158 L674.541,128.358 L673.527,128.46 L673.018,128.472 L673.031,128.472 L672.504,128.458 L671.493,128.355 L670.53,128.156 L669.617,127.87 L668.766,127.506 L667.992,127.081 L667.321,126.618 L666.795,126.168 L666.476,125.818 L666.399,125.667 L666.439,125.641 L666.385,125.455 L666.212,124.979 L666.011,124.28 L665.848,123.438 L665.759,122.506 L665.749,122.032 L665.748,122.073 L665.757,121.911 L665.577,122.116 L686.061,122.116 L686.061,122.116 C686.465,122.117 686.167,121.209 685.395,120.089 C684.624,118.968 683.67,118.06 683.266,118.06 L662.782,118.06 L662.782,118.06 C662.671,118.06 662.61,118.13 662.603,118.265 L662.603,118.265 L662.595,118.427 L662.595,118.427 C662.594,118.44 662.594,118.454 662.594,118.468 L662.594,118.468 L662.611,119.049 L662.732,120.184 L662.978,121.344 L663.375,122.57 L663.98,123.933 L664.872,125.489 L666.017,127.099 L667.193,128.466 L668.264,129.507 L669.257,130.309 L670.221,130.952 L671.19,131.472 L672.177,131.886 L673.19,132.198 L674.228,132.409 L675.285,132.515 L675.812,132.528 L675.812,132.528 C675.817,132.528 675.821,132.528 675.825,132.528 L675.825,132.528 L676.371,132.514 L677.424,132.406 L678.442,132.197 L679.42,131.892 L680.352,131.497 L681.235,131.017 L682.064,130.456 L682.833,129.821 L683.538,129.115 L684.173,128.344 L684.734,127.512 L685.216,126.623 L685.612,125.682 L685.919,124.693 L686.129,123.656 L686.235,122.588 L686.249,122.06 L686.249,122.06 C686.249,122.046 686.249,122.031 686.248,122.016 L686.248,122.016 L686.24,121.854 C686.212,121.303 685.483,120.065 684.613,119.09 C683.742,118.115 683.059,117.771 683.087,118.322 L683.087,118.322" fill="#000000"/>
    <path d="M553.768,86.211 L572.767,101.711 L570.512,98.03 L551.012,112.472 L554.093,116.276 L554.593,86.334 L554.593,86.334 C554.602,85.824 553.903,84.602 553.031,83.605 C552.16,82.607 551.447,82.211 551.438,82.721 C551.438,82.721 551.438,82.721 551.438,82.721 L550.938,112.664 L550.938,112.664 C550.932,113.069 551.378,113.945 552.039,114.823 C552.869,115.926 553.756,116.662 554.019,116.467 L554.019,116.467 L573.519,102.025 L573.519,102.025 C573.649,101.929 573.607,101.616 573.402,101.159 C572.987,100.229 572.03,98.969 571.264,98.344 L571.264,98.344 L552.263,82.844 C552.263,82.844 552.263,82.844 552.263,82.844 C551.498,82.219 551.214,82.467 551.629,83.396 C552.044,84.326 553.002,85.587 553.768,86.211 L553.768,86.211" fill="#000000"/>
  </g>
</svg>
