<?xml version="1.0" encoding="UTF-8"?>
<!DOCTYPE svg PUBLIC "-//W3C//DTD SVG 1.1//EN" "http://www.w3.org/Graphics/SVG/1.1/DTD/svg11.dtd">
<svg version="1.1" xmlns="http://www.w3.org/2000/svg" xmlns:xlink="http://www.w3.org/1999/xlink" x="0" y="0" width="171.445" height="93.322" viewBox="0, 0, 171.445, 93.322">
  <g id="Layer_2" transform="translate(-282, -368.178)">
    <g>
      <path d="M286.898,373.706 L364.897,373.706 L361.923,369.881 L361.923,457.203 L362.102,456.972 L284.103,456.972 L287.077,460.797 L287.077,373.475 L287.077,373.475 C287.078,372.955 286.371,371.73 285.5,370.737 C284.629,369.745 283.923,369.361 283.923,369.881 C283.923,369.881 283.923,369.881 283.923,369.881 L283.923,457.203 L283.923,457.203 C283.923,457.553 284.248,458.245 284.768,459 C285.54,460.12 286.493,461.028 286.897,461.028 L286.897,461.028 L364.898,461.028 L364.898,461.028 C365.016,461.028 365.077,460.949 365.077,460.797 L365.077,460.797 L365.077,373.475 L365.077,373.475 C365.077,373.125 364.752,372.433 364.232,371.678 C363.46,370.558 362.507,369.65 362.103,369.649 L362.103,369.649 L284.102,369.649 C283.698,369.65 283.997,370.558 284.769,371.678 C285.541,372.798 286.494,373.706 286.898,373.706 L286.898,373.706" fill="#000000"/>
      <path d="M338.997,382.352 C342.966,383.098 347.336,382.684 351.331,382.352" fill-opacity="0" stroke="#000000" stroke-width="3" stroke-linecap="round" stroke-linejoin="round"/>
      <path d="M340.664,386.352 C344.658,386.517 350.711,386.221 354.997,385.685" fill-opacity="0" stroke="#000000" stroke-width="3" stroke-linecap="round" stroke-linejoin="round"/>
      <path d="M296.997,398.685 C313.816,397.565 330.771,397.352 347.664,397.352" fill-opacity="0" stroke="#000000" stroke-width="3" stroke-linecap="round" stroke-linejoin="round"/>
      <path d="M297.331,404.018 C312.968,404.232 330.173,401.734 346.331,402.685" fill-opacity="0" stroke="#000000" stroke-width="3" stroke-linecap="round" stroke-linejoin="round"/>
      <path d="M298.331,408.018 C314.923,406.456 332.422,409.49 348.664,407.685" fill-opacity="0" stroke="#000000" stroke-width="3" stroke-linecap="round" stroke-linejoin="round"/>
      <path d="M297.331,413.685 C312.825,413.055 328.698,413.352 344.331,413.352" fill-opacity="0" stroke="#000000" stroke-width="3" stroke-linecap="round" stroke-linejoin="round"/>
      <path d="M297.664,418.685 C305.991,417.635 314.86,417.787 323.331,418.352" fill-opacity="0" stroke="#000000" stroke-width="3" stroke-linecap="round" stroke-linejoin="round"/>
      <path d="M298.997,439.352 C305.127,439.25 311.205,439.685 317.331,439.685" fill-opacity="0" stroke="#000000" stroke-width="3" stroke-linecap="round" stroke-linejoin="round"/>
    </g>
    <g>
      <path d="M374.343,373.706 L452.342,373.706 L449.367,369.881 L449.367,457.203 L449.547,456.972 L371.548,456.972 L374.522,460.797 L374.522,373.475 L374.522,373.475 C374.522,372.955 373.816,371.73 372.945,370.737 C372.074,369.745 371.368,369.361 371.367,369.881 C371.367,369.881 371.367,369.881 371.367,369.881 L371.367,457.203 L371.367,457.203 C371.368,457.553 371.693,458.245 372.213,459 C372.985,460.12 373.938,461.028 374.342,461.028 L374.342,461.028 L452.343,461.028 L452.343,461.028 C452.461,461.028 452.522,460.949 452.522,460.797 L452.522,460.797 L452.522,373.475 L452.522,373.475 C452.522,373.125 452.197,372.433 451.677,371.678 C450.905,370.558 449.952,369.65 449.548,369.649 L449.548,369.649 L371.547,369.649 C371.143,369.65 371.442,370.558 372.214,371.678 C372.986,372.798 373.939,373.706 374.343,373.706 L374.343,373.706" fill="#9A9A9A"/>
      <path d="M426.442,382.352 C430.411,383.098 434.781,382.684 438.776,382.352" fill-opacity="0" stroke="#9A9A9A" stroke-width="3" stroke-linecap="round" stroke-linejoin="round"/>
      <path d="M428.109,386.352 C432.103,386.517 438.155,386.221 442.442,385.685" fill-opacity="0" stroke="#9A9A9A" stroke-width="3" stroke-linecap="round" stroke-linejoin="round"/>
      <path d="M384.442,398.685 C401.261,397.565 418.216,397.352 435.109,397.352" fill-opacity="0" stroke="#9A9A9A" stroke-width="3" stroke-linecap="round" stroke-linejoin="round"/>
      <path d="M384.776,404.018 C400.412,404.232 417.618,401.734 433.776,402.685" fill-opacity="0" stroke="#9A9A9A" stroke-width="3" stroke-linecap="round" stroke-linejoin="round"/>
      <path d="M385.776,408.018 C402.368,406.456 419.867,409.49 436.109,407.685" fill-opacity="0" stroke="#9A9A9A" stroke-width="3" stroke-linecap="round" stroke-linejoin="round"/>
      <path d="M384.776,413.685 C400.27,413.055 416.143,413.352 431.776,413.352" fill-opacity="0" stroke="#9A9A9A" stroke-width="3" stroke-linecap="round" stroke-linejoin="round"/>
      <path d="M385.109,418.685 C393.435,417.635 402.304,417.787 410.776,418.352" fill-opacity="0" stroke="#9A9A9A" stroke-width="3" stroke-linecap="round" stroke-linejoin="round"/>
      <path d="M386.442,439.352 C392.572,439.25 398.65,439.685 404.776,439.685" fill-opacity="0" stroke="#9A9A9A" stroke-width="3" stroke-linecap="round" stroke-linejoin="round"/>
    </g>
  </g>
</svg>
