<?xml version="1.0" encoding="UTF-8"?>
<!DOCTYPE svg PUBLIC "-//W3C//DTD SVG 1.1//EN" "http://www.w3.org/Graphics/SVG/1.1/DTD/svg11.dtd">
<svg version="1.1" xmlns="http://www.w3.org/2000/svg" xmlns:xlink="http://www.w3.org/1999/xlink" x="0" y="0" width="123.172" height="70.694" viewBox="0, 0, 123.172, 70.694">
  <g id="Layer_5" transform="translate(-642.298, -486.894)">
    <path d="M745.685,506.712 L764.367,506.712 L761.392,502.887 L761.392,537.261 L761.572,537.03 L742.889,537.03 L745.864,540.855 L745.864,506.481 L745.864,506.481 C745.864,505.961 745.158,504.735 744.287,503.743 C743.416,502.75 742.709,502.367 742.709,502.886 C742.709,502.886 742.709,502.886 742.709,502.886 L742.709,537.261 L742.709,537.261 C742.709,537.611 743.035,538.303 743.555,539.057 C744.327,540.178 745.28,541.086 745.684,541.086 L745.684,541.086 L764.367,541.086 L764.367,541.086 C764.485,541.086 764.547,541.007 764.547,540.855 L764.547,540.855 L764.547,506.48 L764.547,506.48 C764.547,506.13 764.221,505.438 763.701,504.684 C762.93,503.564 761.976,502.655 761.572,502.655 L761.572,502.655 L742.889,502.655 C742.485,502.655 742.784,503.564 743.555,504.684 C744.327,505.804 745.281,506.712 745.685,506.712 L745.685,506.712" fill="#000000"/>
    <path d="M647.196,492.423 L739.901,492.423 L736.927,488.597 L736.927,537.261 L737.106,537.03 L644.401,537.03 L647.375,540.855 L647.375,492.191 L647.375,492.191 C647.375,491.672 646.669,490.446 645.798,489.454 C644.927,488.461 644.221,488.078 644.22,488.597 C644.22,488.597 644.22,488.597 644.22,488.597 L644.22,537.261 L644.22,537.261 C644.221,537.611 644.546,538.303 645.066,539.057 C645.838,540.178 646.791,541.086 647.195,541.086 L647.195,541.086 L739.902,541.086 L739.902,541.086 C740.02,541.086 740.082,541.007 740.082,540.855 L740.082,540.855 L740.082,492.191 L740.082,492.191 C740.082,491.841 739.756,491.149 739.236,490.395 C738.464,489.275 737.511,488.366 737.107,488.366 L737.107,488.366 L644.4,488.366 C643.996,488.366 644.295,489.275 645.067,490.395 C645.839,491.515 646.792,492.423 647.196,492.423 L647.196,492.423" fill="#000000"/>
    <path d="M676.146,542.911 L676.154,543.072 L676.154,543.028 L676.14,543.555 L676.038,544.554 L675.839,545.519 L675.546,546.454 L675.165,547.353 L674.7,548.207 L674.157,549.01 L673.539,549.757 L672.853,550.442 L672.104,551.059 L671.297,551.603 L670.438,552.069 L669.532,552.452 L668.584,552.746 L667.6,552.946 L666.587,553.048 L666.077,553.06 L666.09,553.06 L665.563,553.047 L664.552,552.943 L663.59,552.745 L662.677,552.458 L661.825,552.095 L661.051,551.669 L660.38,551.206 L659.854,550.756 L659.536,550.406 L659.458,550.255 L659.499,550.229 L659.444,550.043 L659.272,549.567 L659.07,548.868 L658.907,548.026 L658.818,547.094 L658.808,546.621 L658.808,546.661 L658.816,546.499 L658.637,546.705 L679.12,546.705 L679.12,546.705 C679.524,546.705 679.226,545.797 678.455,544.677 C677.683,543.557 676.73,542.648 676.325,542.648 L655.841,542.648 L655.841,542.648 C655.73,542.648 655.669,542.718 655.662,542.853 L655.662,542.853 L655.654,543.015 L655.654,543.015 C655.654,543.028 655.653,543.042 655.654,543.056 L655.654,543.056 L655.671,543.637 L655.791,544.772 L656.037,545.932 L656.434,547.158 L657.039,548.521 L657.931,550.077 L659.076,551.687 L660.252,553.054 L661.324,554.095 L662.316,554.897 L663.281,555.54 L664.249,556.06 L665.237,556.474 L666.249,556.786 L667.288,556.997 L668.344,557.103 L668.872,557.116 L668.872,557.116 C668.876,557.116 668.881,557.117 668.885,557.116 L668.885,557.116 L669.43,557.102 L670.484,556.994 L671.501,556.785 L672.479,556.481 L673.411,556.086 L674.294,555.605 L675.123,555.045 L675.892,554.409 L676.597,553.703 L677.233,552.932 L677.794,552.1 L678.275,551.211 L678.672,550.27 L678.978,549.281 L679.188,548.244 L679.295,547.176 L679.308,546.648 L679.308,546.648 C679.309,546.634 679.308,546.62 679.308,546.604 L679.308,546.604 L679.299,546.442 C679.271,545.891 678.543,544.653 677.672,543.678 C676.801,542.703 676.118,542.359 676.146,542.911 L676.146,542.911" fill="#000000"/>
    <path d="M747.65,542.911 L747.658,543.072 L747.658,543.028 L747.644,543.555 L747.542,544.554 L747.342,545.519 L747.05,546.454 L746.669,547.353 L746.204,548.207 L745.66,549.01 L745.043,549.757 L744.357,550.442 L743.608,551.059 L742.801,551.603 L741.942,552.069 L741.036,552.452 L740.088,552.746 L739.104,552.946 L738.091,553.048 L737.581,553.06 L737.594,553.06 L737.067,553.047 L736.056,552.943 L735.094,552.745 L734.181,552.458 L733.329,552.095 L732.555,551.669 L731.884,551.206 L731.358,550.756 L731.039,550.406 L730.962,550.255 L731.002,550.229 L730.948,550.043 L730.776,549.567 L730.574,548.868 L730.411,548.026 L730.322,547.094 L730.312,546.621 L730.312,546.661 L730.32,546.499 L730.141,546.705 L750.624,546.705 L750.624,546.705 C751.028,546.705 750.73,545.797 749.959,544.677 C749.187,543.557 748.234,542.648 747.829,542.648 L727.345,542.648 L727.345,542.648 C727.234,542.648 727.173,542.718 727.166,542.853 L727.166,542.853 L727.158,543.015 L727.158,543.015 C727.157,543.028 727.157,543.042 727.158,543.056 L727.158,543.056 L727.174,543.637 L727.295,544.772 L727.541,545.932 L727.938,547.158 L728.543,548.521 L729.435,550.077 L730.58,551.687 L731.756,553.054 L732.828,554.095 L733.82,554.897 L734.785,555.54 L735.753,556.06 L736.741,556.474 L737.753,556.786 L738.792,556.997 L739.848,557.103 L740.376,557.116 L740.376,557.116 C740.38,557.116 740.384,557.117 740.389,557.116 L740.389,557.116 L740.934,557.102 L741.988,556.994 L743.005,556.785 L743.983,556.481 L744.915,556.086 L745.798,555.605 L746.627,555.045 L747.396,554.409 L748.101,553.703 L748.737,552.932 L749.298,552.1 L749.779,551.211 L750.176,550.27 L750.482,549.281 L750.692,548.244 L750.799,547.176 L750.812,546.648 L750.812,546.648 C750.812,546.634 750.812,546.62 750.812,546.604 L750.812,546.604 L750.803,546.442 C750.775,545.891 750.047,544.653 749.176,543.678 C748.305,542.703 747.622,542.359 747.65,542.911 L747.65,542.911" fill="#000000"/>
    <text transform="matrix(1, 0, 0, 1, 691.651, 518.289)">
      <tspan x="-32.25" y="6.018" font-family="B612-Regular" font-size="30" fill="#000000">time</tspan>
    </text>
  </g>
</svg>
