<?xml version="1.0" encoding="UTF-8"?>
<!DOCTYPE svg PUBLIC "-//W3C//DTD SVG 1.1//EN" "http://www.w3.org/Graphics/SVG/1.1/DTD/svg11.dtd">
<svg version="1.1" xmlns="http://www.w3.org/2000/svg" xmlns:xlink="http://www.w3.org/1999/xlink" x="0" y="0" width="162.702" height="70.694" viewBox="0, 0, 162.702, 70.694">
  <g id="Layer_4" transform="translate(-305.828, -497.306)">
    <path d="M409.215,517.124 L427.897,517.124 L424.923,513.299 L424.923,547.673 L425.102,547.442 L406.42,547.442 L409.395,551.267 L409.395,516.892 L409.395,516.892 C409.395,516.373 408.689,515.147 407.818,514.155 C406.946,513.162 406.24,512.779 406.24,513.298 C406.24,513.298 406.24,513.298 406.24,513.298 L406.24,547.673 L406.24,547.673 C406.24,548.023 406.566,548.715 407.085,549.469 C407.857,550.589 408.81,551.498 409.215,551.498 L409.215,551.498 L427.898,551.498 L427.898,551.498 C428.016,551.498 428.077,551.419 428.077,551.267 L428.077,551.267 L428.077,516.892 L428.077,516.892 C428.077,516.542 427.752,515.85 427.232,515.096 C426.46,513.976 425.507,513.067 425.103,513.067 L425.103,513.067 L406.42,513.067 C406.016,513.067 406.314,513.976 407.086,515.096 C407.858,516.216 408.811,517.124 409.215,517.124 L409.215,517.124" fill="#000000"/>
    <path d="M310.726,502.834 L403.432,502.834 L400.457,499.009 L400.457,547.673 L400.637,547.442 L307.931,547.442 L310.906,551.267 L310.906,502.603 L310.906,502.603 C310.906,502.084 310.2,500.858 309.329,499.866 C308.457,498.873 307.751,498.49 307.751,499.009 C307.751,499.009 307.751,499.009 307.751,499.009 L307.751,547.673 L307.751,547.673 C307.751,548.023 308.077,548.715 308.596,549.469 C309.368,550.589 310.322,551.498 310.726,551.498 L310.726,551.498 L403.433,551.498 L403.433,551.498 C403.551,551.498 403.612,551.419 403.612,551.267 L403.612,551.267 L403.612,502.603 L403.612,502.603 C403.612,502.253 403.286,501.561 402.767,500.807 C401.995,499.686 401.042,498.778 400.637,498.778 L400.637,498.778 L307.931,498.778 C307.527,498.778 307.825,499.686 308.597,500.807 C309.369,501.927 310.322,502.835 310.726,502.834 L310.726,502.834" fill="#000000"/>
    <path d="M339.677,553.322 L339.685,553.484 L339.684,553.44 L339.671,553.967 L339.568,554.966 L339.369,555.931 L339.077,556.866 L338.696,557.764 L338.231,558.618 L337.687,559.422 L337.07,560.169 L336.384,560.854 L335.635,561.471 L334.828,562.015 L333.969,562.481 L333.062,562.864 L332.114,563.158 L331.131,563.358 L330.117,563.46 L329.608,563.472 L329.621,563.472 L329.094,563.458 L328.083,563.355 L327.12,563.156 L326.207,562.87 L325.356,562.506 L324.582,562.081 L323.911,561.618 L323.385,561.168 L323.066,560.818 L322.989,560.667 L323.029,560.641 L322.975,560.455 L322.802,559.979 L322.601,559.28 L322.438,558.438 L322.349,557.506 L322.339,557.032 L322.338,557.073 L322.347,556.911 L322.167,557.116 L342.651,557.116 L342.651,557.116 C343.055,557.117 342.757,556.209 341.985,555.089 C341.214,553.968 340.26,553.06 339.856,553.06 L319.372,553.06 L319.372,553.06 C319.261,553.06 319.2,553.13 319.193,553.265 L319.193,553.265 L319.185,553.427 L319.185,553.427 C319.184,553.44 319.184,553.454 319.184,553.468 L319.184,553.468 L319.201,554.049 L319.322,555.184 L319.568,556.344 L319.965,557.57 L320.57,558.933 L321.462,560.489 L322.607,562.099 L323.783,563.466 L324.854,564.507 L325.847,565.309 L326.811,565.952 L327.78,566.472 L328.767,566.886 L329.78,567.198 L330.818,567.409 L331.875,567.515 L332.402,567.528 L332.402,567.528 C332.407,567.528 332.411,567.528 332.415,567.528 L332.415,567.528 L332.961,567.514 L334.014,567.406 L335.032,567.197 L336.01,566.892 L336.942,566.497 L337.825,566.017 L338.654,565.456 L339.423,564.821 L340.128,564.115 L340.763,563.344 L341.324,562.512 L341.806,561.623 L342.203,560.682 L342.509,559.693 L342.719,558.656 L342.826,557.588 L342.839,557.06 L342.839,557.06 C342.839,557.046 342.839,557.031 342.838,557.016 L342.838,557.016 L342.83,556.854 C342.802,556.303 342.073,555.065 341.203,554.09 C340.332,553.115 339.649,552.771 339.677,553.322 L339.677,553.322" fill="#000000"/>
    <path d="M411.181,553.322 L411.189,553.484 L411.188,553.44 L411.175,553.967 L411.072,554.966 L410.873,555.931 L410.581,556.866 L410.2,557.764 L409.735,558.618 L409.191,559.422 L408.574,560.169 L407.888,560.854 L407.139,561.471 L406.332,562.015 L405.473,562.481 L404.566,562.864 L403.618,563.158 L402.635,563.358 L401.621,563.46 L401.112,563.472 L401.125,563.472 L400.598,563.458 L399.587,563.355 L398.624,563.156 L397.711,562.87 L396.86,562.506 L396.086,562.081 L395.415,561.618 L394.889,561.168 L394.57,560.818 L394.493,560.667 L394.533,560.641 L394.479,560.455 L394.306,559.979 L394.105,559.28 L393.942,558.438 L393.853,557.506 L393.843,557.032 L393.842,557.073 L393.85,556.911 L393.671,557.116 L414.155,557.116 L414.155,557.116 C414.559,557.117 414.261,556.209 413.489,555.089 C412.718,553.968 411.764,553.06 411.36,553.06 L390.876,553.06 L390.876,553.06 C390.765,553.06 390.704,553.13 390.697,553.265 L390.697,553.265 L390.689,553.427 L390.689,553.427 C390.688,553.44 390.688,553.454 390.688,553.468 L390.688,553.468 L390.705,554.049 L390.826,555.184 L391.072,556.344 L391.469,557.57 L392.074,558.933 L392.966,560.489 L394.111,562.099 L395.286,563.466 L396.358,564.507 L397.351,565.309 L398.315,565.952 L399.284,566.472 L400.271,566.886 L401.284,567.198 L402.322,567.409 L403.379,567.515 L403.906,567.528 L403.906,567.528 C403.911,567.528 403.915,567.528 403.919,567.528 L403.919,567.528 L404.465,567.514 L405.518,567.406 L406.536,567.197 L407.513,566.892 L408.446,566.497 L409.329,566.017 L410.158,565.456 L410.927,564.821 L411.632,564.115 L412.267,563.344 L412.828,562.512 L413.31,561.623 L413.706,560.682 L414.013,559.693 L414.223,558.656 L414.329,557.588 L414.343,557.06 L414.343,557.06 C414.343,557.046 414.343,557.031 414.342,557.016 L414.342,557.016 L414.334,556.854 C414.306,556.303 413.577,555.065 412.707,554.09 C411.836,553.115 411.153,552.771 411.181,553.322 L411.181,553.322" fill="#000000"/>
    <path d="M440.467,511.822 L440.838,511.339 L441.601,510.441 L442.394,509.634 L443.218,508.914 L443.64,508.589 L443.637,508.591 L444.069,508.281 L444.935,507.716 L445.807,507.221 L446.685,506.795 L447.125,506.609 L447.121,506.61 L447.567,506.437 L448.451,506.135 L449.328,505.89 L450.202,505.701 L450.634,505.628 L450.63,505.628 L451.066,505.565 L451.919,505.464 L452.749,505.397 L453.557,505.364 L453.951,505.36 L453.945,505.36 L454.58,505.371 L455.82,505.454 L457.032,505.621 L458.217,505.87 L458.793,506.024 L458.781,506.021 L459.075,506.108 L459.637,506.293 L460.173,506.497 L460.69,506.72 L461.184,506.96 L461.654,507.216 L462.099,507.485 L462.514,507.765 L462.689,507.893 L462.64,507.857 L462.868,508.03 L463.209,508.318 L463.456,508.557 L463.628,508.749 L463.727,508.883 L463.782,508.978 L463.839,509.085 L463.93,509.26 L463.956,509.319 L463.888,509.188 L464.022,509.455 L464.18,509.829 L464.321,510.237 L464.457,510.724 L464.576,511.27 L464.669,511.862 L464.733,512.492 L464.765,513.157 L464.769,513.495 L464.769,513.483 L464.761,513.949 L464.698,514.824 L464.573,515.647 L464.386,516.424 L464.271,516.79 L464.273,516.783 L464.141,517.154 L463.849,517.862 L463.52,518.535 L463.151,519.175 L462.954,519.481 L462.956,519.478 L462.746,519.782 L462.306,520.371 L461.838,520.936 L461.339,521.479 L461.08,521.741 L461.081,521.74 L460.545,522.262 L459.451,523.288 L458.894,523.791 L458.894,523.792 L458.336,524.297 L457.239,525.326 L456.701,525.849 L456.701,525.849 C456.701,525.85 456.7,525.85 456.7,525.851 L456.7,525.851 L456.437,526.116 L455.932,526.665 L455.455,527.235 L455.009,527.827 L454.796,528.132 L454.796,528.132 C454.796,528.133 454.795,528.134 454.794,528.135 L454.794,528.135 L454.593,528.443 L454.216,529.091 L453.877,529.774 L453.579,530.493 L453.443,530.868 L453.443,530.868 C453.442,530.87 453.441,530.873 453.441,530.875 L453.441,530.875 L453.321,531.252 L453.126,532.056 L452.994,532.914 L452.928,533.822 L452.919,534.302 L452.919,534.302 C452.912,534.71 453.471,535.687 454.168,536.485 C454.865,537.283 455.435,537.6 455.443,537.193 C455.443,537.193 455.443,537.193 455.443,537.193 L455.45,536.755 L455.511,535.897 L455.634,535.082 L455.821,534.307 L455.941,533.93 L455.938,533.937 L456.068,533.578 L456.357,532.879 L456.686,532.213 L457.056,531.577 L457.257,531.269 L457.255,531.273 L457.462,530.975 L457.901,530.393 L458.37,529.832 L458.869,529.289 L459.132,529.024 L459.13,529.025 L459.665,528.505 L460.758,527.479 L461.317,526.973 L461.317,526.973 L461.877,526.466 L462.974,525.438 L463.51,524.915 L463.51,524.915 C463.511,524.915 463.511,524.914 463.512,524.914 L463.512,524.914 L463.777,524.645 L464.284,524.093 L464.76,523.518 L465.205,522.922 L465.415,522.617 L465.415,522.617 C465.416,522.616 465.417,522.615 465.418,522.614 L465.418,522.614 L465.623,522.296 L466,521.638 L466.339,520.946 L466.636,520.222 L466.768,519.851 L466.768,519.851 C466.769,519.849 466.77,519.847 466.771,519.844 L466.771,519.844 L466.894,519.449 L467.09,518.628 L467.22,517.756 L467.285,516.839 L467.293,516.372 L467.293,516.372 C467.293,516.368 467.293,516.364 467.293,516.36 L467.293,516.36 L467.288,515.984 L467.251,515.256 L467.176,514.543 L467.061,513.838 L466.902,513.135 L466.691,512.421 L466.415,511.676 L466.088,510.945 L465.953,510.677 L465.953,510.677 C465.932,510.634 465.909,510.59 465.885,510.546 L465.885,510.546 L465.628,510.082 L465.118,509.246 L464.528,508.389 L463.89,507.567 L463.251,506.831 L462.638,506.201 L462.054,505.664 L461.519,505.222 L461.291,505.048 L461.291,505.048 C461.274,505.035 461.258,505.023 461.242,505.012 L461.242,505.012 L460.952,504.804 L460.412,504.444 L459.868,504.118 L459.318,503.82 L458.758,503.551 L458.188,503.306 L457.605,503.086 L457.015,502.891 L456.72,502.804 L456.72,502.804 C456.716,502.803 456.712,502.802 456.709,502.801 L456.709,502.801 L456.093,502.638 L454.864,502.381 L453.615,502.21 L452.351,502.125 L451.716,502.115 L451.716,502.115 C451.714,502.115 451.712,502.115 451.71,502.115 L451.71,502.115 L451.304,502.119 L450.481,502.153 L449.639,502.221 L448.777,502.323 L448.341,502.387 L448.341,502.387 C448.34,502.387 448.339,502.387 448.337,502.387 L448.337,502.387 L447.891,502.463 L447.002,502.656 L446.11,502.906 L445.216,503.212 L444.77,503.385 L444.77,503.385 C444.769,503.385 444.768,503.385 444.767,503.386 L444.767,503.386 L444.316,503.577 L443.424,504.01 L442.54,504.512 L441.666,505.083 L441.234,505.394 L441.234,505.394 C441.233,505.394 441.232,505.395 441.231,505.396 L441.231,505.396 L440.798,505.73 L439.961,506.462 L439.157,507.282 L438.386,508.188 L438.015,508.672 C437.849,508.888 438.264,509.768 438.941,510.638 C439.618,511.507 440.301,512.038 440.467,511.822 L440.467,511.822" fill="#000000"/>
    <g>
      <path d="M450.836,548.314 Q450.836,547.504 451.151,546.784" fill="#000000"/>
      <path d="M452.097,549.762 L452.102,549.561 L452.14,549.195 L452.214,548.842 L452.327,548.493 L452.396,548.325 L452.396,548.325 C452.51,548.045 452.045,547.128 451.357,546.277 C450.67,545.426 450.02,544.963 449.906,545.243 L449.827,545.438 L449.703,545.832 L449.62,546.243 L449.579,546.665 L449.574,546.866 C449.574,546.866 449.574,546.866 449.574,546.866 C449.564,547.271 450.121,548.247 450.818,549.046 C451.515,549.846 452.088,550.166 452.097,549.762 L452.097,549.762" fill="#000000"/>
    </g>
    <g>
      <path d="M451.151,546.784 Q451.466,546.064 452.006,545.524" fill="#000000"/>
      <path d="M452.392,548.333 L452.475,548.156 L452.656,547.827 L452.863,547.523 L453.097,547.24 L453.223,547.109 L453.223,547.109 C453.407,546.917 453.01,546.052 452.338,545.176 C451.665,544.301 450.972,543.747 450.788,543.939 L450.651,544.083 L450.402,544.385 L450.181,544.711 L449.991,545.058 L449.909,545.235 C449.909,545.235 449.909,545.235 449.909,545.235 C449.785,545.503 450.24,546.413 450.926,547.269 C451.612,548.124 452.268,548.6 452.392,548.333 L452.392,548.333" fill="#000000"/>
    </g>
    <g>
      <path d="M452.006,545.524 Q452.546,544.984 453.251,544.669" fill="#000000"/>
      <path d="M453.219,547.113 L453.357,546.981 L453.642,546.745 L453.945,546.537 L454.268,546.357 L454.434,546.278 L454.434,546.278 C454.676,546.164 454.342,545.351 453.688,544.462 C453.035,543.573 452.309,542.945 452.067,543.06 L451.886,543.146 L451.546,543.337 L451.226,543.557 L450.93,543.804 L450.792,543.935 C450.601,544.118 450.99,544.977 451.66,545.855 C452.331,546.732 453.029,547.295 453.219,547.113 L453.219,547.113" fill="#000000"/>
    </g>
    <g>
      <path d="M453.251,544.669 Q453.956,544.354 454.766,544.354" fill="#000000"/>
      <path d="M454.429,546.281 L454.607,546.207 L454.963,546.092 L455.327,546.018 L455.702,545.981 L455.889,545.977 L455.889,545.977 C456.207,545.969 455.962,545.236 455.341,544.34 C454.721,543.444 453.961,542.724 453.643,542.731 L453.428,542.737 L453.019,542.779 L452.626,542.862 L452.25,542.983 L452.072,543.057 C452.072,543.057 452.072,543.057 452.072,543.057 C451.823,543.161 452.148,543.967 452.799,544.857 C453.45,545.747 454.179,546.385 454.429,546.281 L454.429,546.281" fill="#000000"/>
    </g>
    <g>
      <path d="M454.766,544.354 Q455.576,544.354 456.296,544.669" fill="#000000"/>
      <path d="M455.878,545.977 L456.079,545.982 L456.455,546.02 L456.806,546.094 L457.135,546.201 L457.274,546.259 L457.274,546.259 C457.714,546.438 457.633,545.872 457.093,544.994 C456.553,544.116 455.758,543.259 455.317,543.079 L455.093,542.99 L454.68,542.86 L454.266,542.777 L453.854,542.736 L453.653,542.731 C453.653,542.731 453.653,542.731 453.653,542.731 C453.324,542.724 453.556,543.444 454.17,544.34 C454.785,545.236 455.55,545.969 455.878,545.977 L455.878,545.977" fill="#000000"/>
    </g>
    <g>
      <path d="M456.296,544.669 Q457.016,544.984 457.556,545.524" fill="#000000"/>
      <path d="M457.242,546.245 L457.418,546.327 L457.697,546.483 L457.896,546.625 L458.003,546.726 L457.929,546.669 L457.929,546.669 C458.595,547.304 458.967,547.306 458.761,546.674 C458.555,546.042 457.848,545.015 457.182,544.38 L456.833,544.059 L456.354,543.677 L455.924,543.391 L455.527,543.176 L455.35,543.093 C455.35,543.093 455.35,543.093 455.35,543.093 C454.888,542.879 454.938,543.411 455.46,544.282 C455.983,545.152 456.78,546.031 457.242,546.245 L457.242,546.245" fill="#000000"/>
    </g>
    <g>
      <path d="M457.556,545.524 Q458.096,546.064 458.411,546.784" fill="#000000"/>
      <path d="M457.746,546.485 L457.877,546.622 L457.781,546.534 L457.525,546.222 L457.38,546.023 L457.323,545.926 L457.323,545.926 C457.676,546.686 458.449,547.687 459.05,548.161 C459.651,548.635 459.852,548.403 459.499,547.642 C459.499,547.642 459.499,547.642 459.499,547.642 L459.277,547.191 L458.76,546.317 L458.077,545.375 L457.497,544.701 L457.365,544.563 C456.676,543.841 456.203,543.686 456.308,544.217 C456.413,544.747 457.057,545.763 457.746,546.485 L457.746,546.485" fill="#000000"/>
    </g>
    <g>
      <path d="M458.411,546.784 Q458.726,547.504 458.726,548.314" fill="#000000"/>
      <path d="M457.261,545.785 L457.335,545.966 L457.393,546.174 L457.435,546.419 L457.462,546.729 L457.464,546.888 L457.464,546.888 C457.474,547.315 458.048,548.3 458.745,549.088 C459.441,549.876 459.998,550.168 459.987,549.74 L459.98,549.497 L459.927,549.02 L459.812,548.5 L459.634,547.965 L459.56,547.783 C459.273,547.077 458.525,546.057 457.89,545.505 C457.255,544.954 456.974,545.079 457.261,545.785 L457.261,545.785" fill="#000000"/>
    </g>
    <g>
      <path d="M458.726,548.314 Q458.726,549.124 458.411,549.859" fill="#000000"/>
      <path d="M457.464,546.866 L457.459,547.067 L457.421,547.435 L457.347,547.793 L457.234,548.147 L457.165,548.319 L457.165,548.319 C457.053,548.601 457.519,549.519 458.207,550.369 C458.894,551.22 459.543,551.681 459.656,551.399 C459.656,551.399 459.656,551.399 459.656,551.399 L459.735,551.201 L459.858,550.802 L459.941,550.387 L459.983,549.964 L459.987,549.762 C459.987,549.762 459.987,549.762 459.987,549.762 C459.997,549.358 459.44,548.381 458.743,547.582 C458.046,546.782 457.474,546.462 457.464,546.866 L457.464,546.866" fill="#000000"/>
    </g>
    <g>
      <path d="M458.411,549.859 Q458.096,550.594 457.571,551.134" fill="#000000"/>
      <path d="M457.168,548.312 L457.086,548.492 L456.907,548.826 L456.704,549.134 L456.474,549.419 L456.352,549.55 L456.352,549.55 C456.171,549.745 456.57,550.613 457.243,551.487 C457.916,552.362 458.608,552.913 458.789,552.718 L458.923,552.573 L459.166,552.269 L459.383,551.939 L459.571,551.587 L459.653,551.406 C459.653,551.406 459.653,551.406 459.653,551.406 C459.775,551.136 459.318,550.225 458.632,549.37 C457.946,548.516 457.29,548.042 457.168,548.312 L457.168,548.312" fill="#000000"/>
    </g>
    <g>
      <path d="M457.571,551.134 Q457.046,551.674 456.341,552.004" fill="#000000"/>
      <path d="M456.356,549.547 L456.222,549.678 L455.943,549.917 L455.643,550.128 L455.322,550.313 L455.155,550.396 L455.155,550.396 C454.916,550.514 455.253,551.329 455.908,552.218 C456.562,553.106 457.287,553.731 457.526,553.613 L457.706,553.523 L458.045,553.326 L458.361,553.102 L458.651,552.853 L458.786,552.722 C458.786,552.722 458.786,552.722 458.786,552.722 C458.974,552.536 458.583,551.675 457.912,550.798 C457.241,549.921 456.544,549.361 456.356,549.547 L456.356,549.547" fill="#000000"/>
    </g>
    <g>
      <path d="M456.341,552.004 Q455.636,552.334 454.826,552.334" fill="#000000"/>
      <path d="M455.16,550.393 L454.983,550.47 L454.627,550.59 L454.263,550.669 L453.889,550.707 L453.702,550.711 L453.702,550.711 C453.385,550.719 453.63,551.452 454.25,552.349 C454.871,553.245 455.631,553.965 455.949,553.957 C455.949,553.957 455.949,553.957 455.949,553.957 L456.164,553.951 L456.574,553.906 L456.967,553.82 L457.343,553.692 L457.521,553.615 C457.521,553.615 457.521,553.615 457.521,553.615 C457.768,553.507 457.439,552.699 456.788,551.809 C456.136,550.92 455.407,550.286 455.16,550.393 L455.16,550.393" fill="#000000"/>
    </g>
    <g>
      <path d="M454.826,552.334 Q453.986,552.334 453.266,552.004" fill="#000000"/>
      <path d="M453.713,550.711 L453.505,550.706 L453.119,550.666 L452.761,550.589 L452.432,550.478 L452.297,550.418 L452.297,550.418 C451.85,550.228 451.922,550.784 452.456,551.66 C452.991,552.535 453.787,553.399 454.234,553.59 L454.463,553.685 L454.884,553.821 L455.306,553.909 L455.73,553.951 L455.938,553.957 C456.267,553.965 456.035,553.245 455.421,552.349 C454.806,551.452 454.042,550.719 453.713,550.711 L453.713,550.711" fill="#000000"/>
    </g>
    <g>
      <path d="M453.266,552.004 Q452.546,551.674 452.006,551.134" fill="#000000"/>
      <path d="M452.332,550.434 L452.156,550.349 L451.877,550.189 L451.678,550.044 L451.568,549.94 L451.635,549.992 L451.635,549.992 C450.969,549.356 450.595,549.35 450.799,549.981 C451.004,550.611 451.71,551.639 452.376,552.276 L452.719,552.591 L453.194,552.975 L453.625,553.265 L454.021,553.488 L454.199,553.574 C454.668,553.801 454.63,553.282 454.115,552.415 C453.6,551.548 452.801,550.661 452.332,550.434 L452.332,550.434" fill="#000000"/>
    </g>
    <g>
      <path d="M452.006,551.134 Q451.466,550.594 451.151,549.859" fill="#000000"/>
      <path d="M451.819,550.177 L451.688,550.039 L451.796,550.142 L452.06,550.466 L452.199,550.656 L452.25,550.742 L452.25,550.742 C451.908,549.99 451.138,548.985 450.531,548.498 C449.924,548.01 449.709,548.224 450.051,548.976 C450.051,548.976 450.051,548.976 450.051,548.976 L450.267,549.424 L450.777,550.3 L451.469,551.261 L452.061,551.953 L452.193,552.091 C452.882,552.815 453.357,552.973 453.254,552.444 C453.15,551.915 452.508,550.9 451.819,550.177 L451.819,550.177" fill="#000000"/>
    </g>
    <g>
      <path d="M451.151,549.859 Q450.836,549.124 450.836,548.314" fill="#000000"/>
      <path d="M452.307,550.875 L452.233,550.69 L452.171,550.468 L452.126,550.213 L452.1,549.9 L452.097,549.74 L452.097,549.74 C452.087,549.313 451.514,548.328 450.817,547.54 C450.12,546.753 449.564,546.46 449.574,546.888 C449.574,546.888 449.574,546.888 449.574,546.888 L449.581,547.131 L449.633,547.609 L449.747,548.127 L449.92,548.658 L449.994,548.843 C449.994,548.843 449.994,548.843 449.994,548.843 C450.273,549.542 451.017,550.563 451.656,551.124 C452.294,551.685 452.586,551.574 452.307,550.875 L452.307,550.875" fill="#000000"/>
    </g>
  </g>
</svg>
